<svg width="209" height="189" viewBox="0 0 209 189" fill="none" xmlns="http://www.w3.org/2000/svg">
<path d="M153.55 74.1628H104.713H55.876H45.0233C45.0233 74.1628 45.0233 93.155 34.1706 104.008C23.3179 114.86 7.03882 117.574 7.03882 117.574V188.116H55.876H104.713H153.55H202.388V112.147C202.388 112.147 191.535 114.86 180.682 106.721C169.83 98.5814 164.403 74.1628 164.403 74.1628H153.55Z" fill="white"/>
<path d="M153.55 3.62015H104.713H55.876H45.0233C45.0233 3.62015 45.0233 22.6124 34.1706 33.4651C23.3179 44.3178 7.03882 47.031 7.03882 47.031V117.574H55.876H104.713H153.55H202.388V41.6046C202.388 41.6046 191.535 44.3178 180.682 36.1783C169.83 28.0388 164.403 3.62015 164.403 3.62015H153.55Z" fill="#57AFFF"/>
<path d="M202.388 188.116V139.994V116.43V94.4356V44.3808C202.388 44.2609 202.29 44.1637 202.171 44.1637V44.1637C181.556 44.1637 164.844 27.2937 164.844 6.67869V6.67869C164.844 6.55832 164.746 6.45982 164.626 6.45982L148.824 6.45987C148.824 6.45987 148.824 6.45987 148.824 6.45987C148.824 6.45987 145.673 6.45987 104.713 6.45987C63.753 6.45987 60.6022 6.45987 60.6022 6.45987C60.6022 6.45987 60.6022 6.45987 60.6022 6.45987H45.2787C45.1964 6.45987 45.1297 6.52659 45.1297 6.60889V6.60889C45.1297 27.3499 28.3158 44.1637 7.57484 44.1637H7.18938C7.10623 44.1637 7.03882 44.2311 7.03882 44.3143V94.4356V116.43V139.994V188.116" stroke="black" stroke-width="12.568"/>
<path d="M34.2468 117.574L56.013 117.574" stroke="black" stroke-width="12.568" stroke-linecap="round"/>
<path d="M153.961 117.574L175.727 117.574" stroke="black" stroke-width="12.568" stroke-linecap="round"/>
<path d="M83.5697 82.8256C84.3294 82.8256 85.1162 83.0426 85.9302 83.4767C86.7984 83.8566 87.4496 84.3721 87.8837 85.0232L107.663 115.465L103.593 115.302L123.86 85.0232C124.891 83.5581 126.221 82.8256 127.849 82.8256C129.151 82.8256 130.318 83.2868 131.349 84.2093C132.38 85.1318 132.895 86.3256 132.895 87.7907V134.919C132.895 136.329 132.434 137.523 131.512 138.5C130.589 139.422 129.368 139.884 127.849 139.884C126.329 139.884 125.081 139.422 124.105 138.5C123.182 137.523 122.721 136.329 122.721 134.919V96.5814L125.895 97.3139L109.291 122.628C108.802 123.225 108.178 123.74 107.419 124.174C106.713 124.609 105.981 124.798 105.221 124.744C104.515 124.798 103.783 124.609 103.023 124.174C102.318 123.74 101.721 123.225 101.233 122.628L85.686 98.0465L87.8023 93.7325V134.919C87.8023 136.329 87.3682 137.523 86.5 138.5C85.6317 139.422 84.4922 139.884 83.0813 139.884C81.7248 139.884 80.6124 139.422 79.7441 138.5C78.8759 137.523 78.4418 136.329 78.4418 134.919V87.7907C78.4418 86.4341 78.9302 85.2674 79.9069 84.2907C80.9379 83.3139 82.1589 82.8256 83.5697 82.8256Z" fill="black"/>
</svg>
