<svg width="393" height="78" viewBox="0 0 393 78" fill="none" xmlns="http://www.w3.org/2000/svg">
<path d="M49.2344 33.2868H33.6756H18.1169H14.6594C14.6594 33.2868 14.6594 39.0749 11.2019 42.3824C7.74436 45.6899 2.55811 44.1395 2.55811 44.1395V68.0155H18.1169H33.6756H49.2344H64.7931V44.863C64.7931 44.863 61.3356 45.6899 57.8781 43.2093C54.4206 40.7287 52.6919 33.2868 52.6919 33.2868H49.2344Z" fill="white"/>
<path d="M49.2344 9.37247H33.6756H18.1169H14.6594C14.6594 9.37247 14.6594 15.4231 11.2019 18.8806C7.74436 22.3381 2.55811 23.2025 2.55811 23.2025V45.6762H18.1169H33.6756H49.2344H64.7931V21.4737C64.7931 21.4737 61.3356 22.3381 57.8781 19.745C54.4206 17.1518 52.6919 9.37247 52.6919 9.37247H49.2344Z" fill="#57AFFF"/>
<path d="M64.7931 68.15V52.8191V45.3117V38.3048V22.3581C64.7931 22.32 64.7622 22.289 64.724 22.289V22.289C58.1564 22.289 52.8323 16.9145 52.8323 10.3469V10.3469C52.8323 10.3085 52.8012 10.2771 52.7628 10.2771L47.7287 10.2771C47.7287 10.2771 47.7287 10.2771 47.7287 10.2771C47.7286 10.2771 46.7246 10.2771 33.6756 10.2771C20.6263 10.2771 19.6225 10.2771 19.6225 10.2771C19.6225 10.2771 19.6225 10.2771 19.6225 10.2771H14.7407C14.7145 10.2771 14.6932 10.2984 14.6932 10.3246V10.3246C14.6932 16.9324 9.33661 22.289 2.72887 22.289H2.60607C2.57958 22.289 2.55811 22.3105 2.55811 22.337V38.3048V45.3117V52.8191V68.15" stroke="black" stroke-width="4.00395"/>
<path d="M11.2263 45.6762L18.1606 45.6762" stroke="black" stroke-width="4.00395" stroke-linecap="round"/>
<path d="M49.3651 45.6762L56.2995 45.6762" stroke="black" stroke-width="4.00395" stroke-linecap="round"/>
<path d="M26.9399 34.4822C27.1819 34.4822 27.4326 34.5513 27.6919 34.6896C27.9685 34.8106 28.176 34.9749 28.3143 35.1823L34.6156 44.8806L33.319 44.8287L39.7759 35.1823C40.1043 34.7155 40.5279 34.4822 41.0465 34.4822C41.4614 34.4822 41.8331 34.6291 42.1616 34.923C42.49 35.2169 42.6542 35.5972 42.6542 36.064V51.0782C42.6542 51.5276 42.5073 51.908 42.2134 52.2191C41.9195 52.513 41.5306 52.66 41.0465 52.66C40.5625 52.66 40.1648 52.513 39.8537 52.2191C39.5598 51.908 39.4128 51.5276 39.4128 51.0782V38.8645L40.4242 39.0979L35.1342 47.1625C34.9786 47.3527 34.7798 47.5169 34.5378 47.6552C34.313 47.7935 34.0796 47.854 33.8376 47.8368C33.6129 47.854 33.3795 47.7935 33.1375 47.6552C32.9127 47.5169 32.7226 47.3527 32.567 47.1625L27.6141 39.3313L28.2883 37.9569V51.0782C28.2883 51.5276 28.15 51.908 27.8734 52.2191C27.5968 52.513 27.2338 52.66 26.7843 52.66C26.3521 52.66 25.9977 52.513 25.7211 52.2191C25.4445 51.908 25.3062 51.5276 25.3062 51.0782V36.064C25.3062 35.6318 25.4618 35.2601 25.773 34.9489C26.1015 34.6377 26.4904 34.4822 26.9399 34.4822Z" fill="black"/>
<path d="M130.376 61.7287H121.928V31.1418H121.677L109.367 61.2891H103.4L91.0903 31.1418H90.8391V61.7287H82.3916V16.4136H93.3828L106.258 48.5393H106.509L119.385 16.4136H130.376V61.7287ZM167.589 61.7287L164.135 50.7375H148.213L144.759 61.7287H135.024L150.757 16.4136H161.905L177.669 61.7287H167.589ZM156.064 25.0809L150.254 43.6403H162.093L156.284 25.0809H156.064ZM220.629 42.6982C220.629 55.0398 213.155 62.5138 200.531 62.5138C186.996 62.5138 178.706 53.658 178.706 38.9298C178.706 24.4215 186.996 15.6285 200.311 15.6285C210.894 15.6285 218.871 21.8778 220.221 31.0476H210.706C209.324 26.3057 205.461 23.4794 200.343 23.4794C192.869 23.4794 188.378 29.1634 188.378 38.8042C188.378 48.6335 193.151 54.6315 200.688 54.6315C206.875 54.6315 211.177 50.8317 211.365 45.2105L211.397 44.4882H201.536V37.5795H220.629V42.6982ZM235.986 61.7287H226.91V16.4136H234.824L255.99 45.9328H256.241V16.4136H265.316V61.7287H257.465L236.268 32.0525H235.986V61.7287ZM282.368 61.7287H272.885V16.4136H282.368V61.7287ZM289.905 16.4136H307.208C320.806 16.4136 328.814 24.5157 328.814 38.8984C328.814 53.2812 320.806 61.7287 307.208 61.7287H289.905V16.4136ZM299.389 24.233V53.8779H306.078C314.557 53.8779 319.142 48.7277 319.142 38.9298C319.142 29.446 314.431 24.233 306.078 24.233H299.389ZM344.421 61.7287H334.938V16.4136H344.421V61.7287ZM381.634 61.7287L378.18 50.7375H362.259L358.804 61.7287H349.069L364.802 16.4136H375.95L391.715 61.7287H381.634ZM370.109 25.0809L364.3 43.6403H376.139L370.329 25.0809H370.109Z" fill="black"/>
</svg>
