<svg width="213" height="249" viewBox="0 0 213 249" fill="none" xmlns="http://www.w3.org/2000/svg">
<path d="M34.9959 237.066H29.314V216.492H29.145L20.865 236.77H16.8517L8.57167 216.492H8.40269V237.066H2.72074V206.586H10.1136L18.7739 228.194H18.9428L27.6031 206.586H34.9959V237.066ZM60.0261 237.066L57.7026 229.673H46.9935L44.6701 237.066H38.1221L48.7045 206.586H56.2029L66.8065 237.066H60.0261ZM52.2742 212.416L48.3665 224.899H56.3297L52.422 212.416H52.2742ZM95.7021 224.265C95.7021 232.567 90.6749 237.594 82.1836 237.594C73.0798 237.594 67.5035 231.637 67.5035 221.731C67.5035 211.972 73.0798 206.058 82.0358 206.058C89.1541 206.058 94.5192 210.261 95.4275 216.429H89.0273C88.0979 213.239 85.4999 211.338 82.0569 211.338C77.0297 211.338 74.0092 215.162 74.0092 221.646C74.0092 228.258 77.2199 232.292 82.2893 232.292C86.4504 232.292 89.3442 229.736 89.4709 225.955L89.492 225.469H82.8596V220.822H95.7021V224.265ZM106.031 237.066H99.9266V206.586H105.249L119.486 226.441H119.655V206.586H125.759V237.066H120.479L106.221 217.105H106.031V237.066ZM137.229 237.066H130.85V206.586H137.229V237.066ZM142.298 206.586H153.937C163.083 206.586 168.469 212.035 168.469 221.71C168.469 231.384 163.083 237.066 153.937 237.066H142.298V206.586ZM148.677 211.845V231.785H153.176C158.88 231.785 161.963 228.321 161.963 221.731C161.963 215.352 158.795 211.845 153.176 211.845H148.677ZM178.967 237.066H172.588V206.586H178.967V237.066ZM203.997 237.066L201.674 229.673H190.965L188.641 237.066H182.093L192.676 206.586H200.174L210.778 237.066H203.997ZM196.245 212.416L192.338 224.899H200.301L196.393 212.416H196.245Z" fill="black"/>
<path d="M157.55 74.1628H108.713H59.876H49.0233C49.0233 74.1628 49.0233 93.155 38.1706 104.008C27.3179 114.86 11.0388 117.574 11.0388 117.574V188.116H59.876H108.713H157.55H206.388V112.147C206.388 112.147 195.535 114.86 184.682 106.721C173.83 98.5814 168.403 74.1628 168.403 74.1628H157.55Z" fill="white"/>
<path d="M157.55 3.62015H108.713H59.876H49.0233C49.0233 3.62015 49.0233 22.6124 38.1706 33.4651C27.3179 44.3178 11.0388 47.031 11.0388 47.031V117.574H59.876H108.713H157.55H206.388V41.6046C206.388 41.6046 195.535 44.3178 184.682 36.1783C173.83 28.0388 168.403 3.62015 168.403 3.62015H157.55Z" fill="#57AFFF"/>
<path d="M206.388 188.116V139.994V116.43V94.4356V44.3808C206.388 44.2609 206.29 44.1637 206.171 44.1637V44.1637C185.556 44.1637 168.844 27.2937 168.844 6.67869V6.67869C168.844 6.55832 168.746 6.45982 168.626 6.45982L152.824 6.45987C152.824 6.45987 152.824 6.45987 152.824 6.45987C152.824 6.45987 149.673 6.45987 108.713 6.45987C67.753 6.45987 64.6022 6.45987 64.6022 6.45987C64.6022 6.45987 64.6022 6.45987 64.6022 6.45987H49.2787C49.1964 6.45987 49.1297 6.52659 49.1297 6.60889V6.60889C49.1297 27.3499 32.3158 44.1637 11.5748 44.1637H11.1894C11.1062 44.1637 11.0388 44.2311 11.0388 44.3143V94.4356V116.43V139.994V188.116" stroke="black" stroke-width="12.568"/>
<path d="M38.2468 117.574L60.013 117.574" stroke="black" stroke-width="12.568" stroke-linecap="round"/>
<path d="M157.961 117.574L179.727 117.574" stroke="black" stroke-width="12.568" stroke-linecap="round"/>
<path d="M87.5697 82.8256C88.3294 82.8256 89.1162 83.0426 89.9302 83.4767C90.7984 83.8566 91.4496 84.3721 91.8837 85.0232L111.663 115.465L107.593 115.302L127.86 85.0232C128.891 83.5581 130.221 82.8256 131.849 82.8256C133.151 82.8256 134.318 83.2868 135.349 84.2093C136.38 85.1318 136.895 86.3256 136.895 87.7907V134.919C136.895 136.329 136.434 137.523 135.512 138.5C134.589 139.422 133.368 139.884 131.849 139.884C130.329 139.884 129.081 139.422 128.105 138.5C127.182 137.523 126.721 136.329 126.721 134.919V96.5814L129.895 97.3139L113.291 122.628C112.802 123.225 112.178 123.74 111.419 124.174C110.713 124.609 109.981 124.798 109.221 124.744C108.515 124.798 107.783 124.609 107.023 124.174C106.318 123.74 105.721 123.225 105.233 122.628L89.686 98.0465L91.8023 93.7325V134.919C91.8023 136.329 91.3682 137.523 90.5 138.5C89.6317 139.422 88.4922 139.884 87.0813 139.884C85.7248 139.884 84.6124 139.422 83.7441 138.5C82.8759 137.523 82.4418 136.329 82.4418 134.919V87.7907C82.4418 86.4341 82.9302 85.2674 83.9069 84.2907C84.9379 83.3139 86.1589 82.8256 87.5697 82.8256Z" fill="black"/>
</svg>
